<svg viewBox="-3 -3 7 7" xmlns="http://www.w3.org/2000/svg"><path d="M-2.75,-2.75 C-2.5625,-2.75 -2.5,-2.75 -2.5625,-2.75 C-2.625,-2.75 -2.375,-2.75 -2.4375,-2.75 C-2.5,-2.75 -2.4375,-2.75 -2.25,-2.75 C-2.25,-2.5625 -2.185,-2.5025 -2.1225,-2.565 C-2.06,-2.6275 -2.06,-2.3775 -2.1225,-2.44 C-2.185,-2.5025 -2.25,-2.4375 -2.25,-2.25 C-2.4375,-2.25 -2.4725,-2.2849998 -2.41,-2.3474998 C-2.3475,-2.4099998 -2.5975,-2.41 -2.535,-2.3474998 C-2.4725,-2.2849998 -2.5625,-2.25 -2.75,-2.25 C-2.75,-2.4375 -2.75,-2.5 -2.75,-2.4375 C-2.75,-2.375 -2.75,-2.625 -2.75,-2.5625 C-2.75,-2.5 -2.75,-2.5625 -2.75,-2.75 Z" fill="darkblue" stroke="black" stroke-width="0.004" /><path d="M-2.75,-2 C-2.5625,-2 -2.4724998,-2.035 -2.535,-2.0975 C-2.5975,-2.16 -2.3474998,-2.16 -2.4099998,-2.0975 C-2.4724998,-2.035 -2.4375,-2 -2.25,-2 C-2.25,-1.8125 -2.2649999,-1.7225 -2.3274999,-1.785 C-2.3899999,-1.8475 -2.3899999,-1.5975 -2.3274999,-1.66 C-2.2649999,-1.7225 -2.25,-1.6875 -2.25,-1.5 C-2.4375,-1.5 -2.5525,-1.54 -2.49,-1.6025 C-2.4275,-1.665 -2.6775,-1.665 -2.615,-1.6025 C-2.5525,-1.54 -2.5625,-1.5 -2.75,-1.5 C-2.75,-1.6875 -2.75,-1.75 -2.75,-1.6875 C-2.75,-1.625 -2.75,-1.875 -2.75,-1.8125 C-2.75,-1.75 -2.75,-1.8125 -2.75,-2 Z" fill="darkblue" stroke="black" stroke-width="0.004" /><path d="M-2.75,-1.25 C-2.5625,-1.25 -2.5525,-1.29 -2.615,-1.3525 C-2.6775,-1.415 -2.4275,-1.415 -2.49,-1.3525 C-2.5525,-1.29 -2.4375,-1.25 -2.25,-1.25 C-2.25,-1.0625 -2.305,-0.9325 -2.3675,-0.995 C-2.43,-1.0575 -2.43,-0.8075 -2.3675,-0.87 C-2.305,-0.9325 -2.25,-0.9375 -2.25,-0.75 C-2.4375,-0.75 -2.5425,-0.73 -2.48,-0.6675 C-2.4175,-0.605 -2.6675,-0.605 -2.605,-0.6675 C-2.5425,-0.73 -2.5625,-0.75 -2.75,-0.75 C-2.75,-0.9375 -2.75,-1 -2.75,-0.9375 C-2.75,-0.875 -2.75,-1.125 -2.75,-1.0625 C-2.75,-1 -2.75,-1.0625 -2.75,-1.25 Z" fill="darkblue" stroke="black" stroke-width="0.004" /><path d="M-2.75,-0.5 C-2.5625,-0.5 -2.5425,-0.48000002 -2.605,-0.41750002 C-2.6675,-0.355 -2.4175,-0.355 -2.48,-0.41750002 C-2.5425,-0.48000002 -2.4375,-0.5 -2.25,-0.5 C-2.25,-0.3125 -2.2849998,-0.20249999 -2.3474998,-0.265 C-2.4099998,-0.3275 -2.41,-0.077499986 -2.3474998,-0.13999999 C-2.2849998,-0.20249999 -2.25,-0.1875 -2.25,0 C-2.4375,0 -2.5225,-0.00999999 -2.46,-0.07249999 C-2.3975,-0.13499999 -2.6475,-0.13499999 -2.585,-0.07249999 C-2.5225,-0.00999999 -2.5625,0 -2.75,0 C-2.75,-0.1875 -2.75,-0.25 -2.75,-0.1875 C-2.75,-0.125 -2.75,-0.375 -2.75,-0.3125 C-2.75,-0.25 -2.75,-0.3125 -2.75,-0.5 Z" fill="darkblue" stroke="black" stroke-width="0.004" /><path d="M-2.75,0.25 C-2.5625,0.25 -2.5225,0.24000001 -2.585,0.17750001 C-2.6475,0.11500001 -2.3975,0.11500001 -2.46,0.17750001 C-2.5225,0.24000001 -2.4375,0.25 -2.25,0.25 C-2.25,0.4375 -2.205,0.5175 -2.1425,0.455 C-2.08,0.3925 -2.08,0.6425 -2.1425,0.58 C-2.205,0.5175 -2.25,0.5625 -2.25,0.75 C-2.4375,0.75 -2.4225001,0.815 -2.3600001,0.8775 C-2.2975001,0.94000006 -2.5475001,0.94 -2.4850001,0.8775 C-2.4225001,0.815 -2.5625,0.75 -2.75,0.75 C-2.75,0.5625 -2.75,0.5 -2.75,0.5625 C-2.75,0.625 -2.75,0.375 -2.75,0.4375 C-2.75,0.5 -2.75,0.4375 -2.75,0.25 Z" fill="darkblue" stroke="black" stroke-width="0.004" /><path d="M-2.75,1 C-2.5625,1 -2.4225001,1.065 -2.4850001,1.1275 C-2.5475001,1.19 -2.2975001,1.19 -2.3600001,1.1275 C-2.4225001,1.065 -2.4375,1 -2.25,1 C-2.25,1.1875 -2.205,1.2674999 -2.1425,1.205 C-2.08,1.1425 -2.08,1.3924999 -2.1425,1.3299999 C-2.205,1.2674999 -2.25,1.3125 -2.25,1.5 C-2.4375,1.5 -2.4625,1.525 -2.4,1.5875 C-2.3375,1.65 -2.5875,1.65 -2.525,1.5875 C-2.4625,1.525 -2.5625,1.5 -2.75,1.5 C-2.75,1.3125 -2.75,1.25 -2.75,1.3125 C-2.75,1.375 -2.75,1.125 -2.75,1.1875 C-2.75,1.25 -2.75,1.1875 -2.75,1 Z" fill="darkblue" stroke="black" stroke-width="0.004" /><path d="M-2.75,1.75 C-2.5625,1.75 -2.4625,1.775 -2.525,1.8375 C-2.5875,1.9 -2.3375,1.9 -2.4,1.8375 C-2.4625,1.775 -2.4375,1.75 -2.25,1.75 C-2.25,1.9375 -2.2150002,2.0275002 -2.1525002,1.965 C-2.0900002,1.9025 -2.0900002,2.1525002 -2.1525002,2.0900002 C-2.2150002,2.0275002 -2.25,2.0625 -2.25,2.25 C-2.4375,2.25 -2.4725,2.2150002 -2.41,2.1525002 C-2.3475,2.0900002 -2.5975,2.09 -2.535,2.1525002 C-2.4725,2.2150002 -2.5625,2.25 -2.75,2.25 C-2.75,2.0625 -2.75,2 -2.75,2.0625 C-2.75,2.125 -2.75,1.875 -2.75,1.9375 C-2.75,2 -2.75,1.9375 -2.75,1.75 Z" fill="darkblue" stroke="black" stroke-width="0.004" /><path d="M-2.75,2.5 C-2.5625,2.5 -2.4724998,2.465 -2.535,2.4025 C-2.5975,2.34 -2.3474998,2.34 -2.4099998,2.4025 C-2.4724998,2.465 -2.4375,2.5 -2.25,2.5 C-2.25,2.6875 -2.21,2.6975 -2.1475,2.635 C-2.085,2.5725 -2.085,2.8225 -2.1475,2.76 C-2.21,2.6975 -2.25,2.8125 -2.25,3 C-2.4375,3 -2.5725,2.94 -2.51,2.8775 C-2.4475,2.815 -2.6975,2.815 -2.635,2.8775 C-2.5725,2.94 -2.5625,3 -2.75,3 C-2.75,2.8125 -2.75,2.75 -2.75,2.8125 C-2.75,2.875 -2.75,2.625 -2.75,2.6875 C-2.75,2.75 -2.75,2.6875 -2.75,2.5 Z" fill="darkblue" stroke="black" stroke-width="0.004" /><path d="M-2.75,3.25 C-2.5625,3.25 -2.5725,3.19 -2.635,3.1275 C-2.6975,3.065 -2.4475,3.065 -2.51,3.1275 C-2.5725,3.19 -2.4375,3.25 -2.25,3.25 C-2.25,3.4375 -2.18,3.4175 -2.1175,3.355 C-2.055,3.2925 -2.055,3.5425 -2.1175,3.48 C-2.18,3.4175 -2.25,3.5625 -2.25,3.75 C-2.4375,3.75 -2.5,3.75 -2.4375,3.75 C-2.375,3.75 -2.625,3.75 -2.5625,3.75 C-2.5,3.75 -2.5625,3.75 -2.75,3.75 C-2.75,3.5625 -2.75,3.5 -2.75,3.5625 C-2.75,3.625 -2.75,3.375 -2.75,3.4375 C-2.75,3.5 -2.75,3.4375 -2.75,3.25 Z" fill="darkblue" stroke="black" stroke-width="0.004" /><path d="M-2,-2.75 C-1.8125,-2.75 -1.75,-2.75 -1.8125,-2.75 C-1.875,-2.75 -1.625,-2.75 -1.6875,-2.75 C-1.75,-2.75 -1.6875,-2.75 -1.5,-2.75 C-1.5,-2.5625 -1.51,-2.5525 -1.5725,-2.615 C-1.635,-2.6775 -1.635,-2.4275 -1.5725,-2.49 C-1.51,-2.5525 -1.5,-2.4375 -1.5,-2.25 C-1.6875,-2.25 -1.7225001,-2.2350001 -1.6600001,-2.1725001 C-1.5975001,-2.1100001 -1.8475001,-2.1100001 -1.7850001,-2.1725001 C-1.7225001,-2.2350001 -1.8125,-2.25 -2,-2.25 C-2,-2.4375 -1.935,-2.5025 -1.8725,-2.44 C-1.81,-2.3775 -1.81,-2.6275 -1.8725,-2.565 C-1.935,-2.5025 -2,-2.5625 -2,-2.75 Z" fill="darkblue" stroke="black" stroke-width="0.004" /><path d="M-2,-2 C-1.8125,-2 -1.7225,-1.985 -1.785,-1.9225 C-1.8475,-1.86 -1.5975,-1.86 -1.66,-1.9225 C-1.7225,-1.985 -1.6875,-2 -1.5,-2 C-1.5,-1.8125 -1.485,-1.7025 -1.4225,-1.765 C-1.36,-1.8275 -1.36,-1.5775 -1.4225,-1.64 C-1.485,-1.7025 -1.5,-1.6875 -1.5,-1.5 C-1.6875,-1.5 -1.6825,-1.4449999 -1.62,-1.3824999 C-1.5575001,-1.3199999 -1.8075,-1.3199999 -1.7450001,-1.3824999 C-1.6825,-1.4449999 -1.8125,-1.5 -2,-1.5 C-2,-1.6875 -2.0149999,-1.7225001 -2.0774999,-1.6600001 C-2.1399999,-1.5975 -2.1399999,-1.8475 -2.0774999,-1.785 C-2.0149999,-1.7225001 -2,-1.8125 -2,-2 Z" fill="darkblue" stroke="black" stroke-width="0.004" /><path d="M-2,-1.25 C-1.8125,-1.25 -1.6825,-1.1949999 -1.745,-1.1324999 C-1.8075,-1.0699999 -1.5575,-1.0699999 -1.62,-1.1324999 C-1.6825,-1.1949999 -1.6875,-1.25 -1.5,-1.25 C-1.5,-1.0625 -1.485,-0.9525 -1.4225,-1.015 C-1.36,-1.0775 -1.36,-0.8275 -1.4225,-0.89 C-1.485,-0.9525 -1.5,-0.9375 -1.5,-0.75 C-1.6875,-0.75 -1.7025001,-0.71500003 -1.6400001,-0.65250003 C-1.5775001,-0.59 -1.8275,-0.59000003 -1.765,-0.65250003 C-1.7025001,-0.71500003 -1.8125,-0.75 -2,-0.75 C-2,-0.9375 -2.055,-0.9325 -2.1175,-0.87 C-2.18,-0.8075 -2.18,-1.0575 -2.1175,-0.995 C-2.055,-0.9325 -2,-1.0625 -2,-1.25 Z" fill="darkblue" stroke="black" stroke-width="0.004" /><path d="M-2,-0.5 C-1.8125,-0.5 -1.7025,-0.465 -1.765,-0.4025 C-1.8275,-0.34 -1.5775,-0.34 -1.64,-0.4025 C-1.7025,-0.465 -1.6875,-0.5 -1.5,-0.5 C-1.5,-0.3125 -1.4449999,-0.2425 -1.3824999,-0.305 C-1.3199999,-0.36749998 -1.3199999,-0.11750001 -1.3824999,-0.18 C-1.4449999,-0.2425 -1.5,-0.1875 -1.5,0 C-1.6875,0 -1.7325001,-0.045000017 -1.6700001,-0.10750002 C-1.6075001,-0.17000002 -1.8575001,-0.17000002 -1.7950001,-0.10750002 C-1.7325001,-0.045000017 -1.8125,0 -2,0 C-2,-0.1875 -2.035,-0.20249999 -2.0975,-0.13999999 C-2.16,-0.077499986 -2.16,-0.3275 -2.0975,-0.265 C-2.035,-0.20249999 -2,-0.3125 -2,-0.5 Z" fill="darkblue" stroke="black" stroke-width="0.004" /><path d="M-2,0.25 C-1.8125,0.25 -1.7325001,0.20499998 -1.7950001,0.14249998 C-1.8575001,0.07999998 -1.6075001,0.07999998 -1.6700001,0.14249998 C-1.7325001,0.20499998 -1.6875,0.25 -1.5,0.25 C-1.5,0.4375 -1.4549999,0.5175 -1.3924999,0.455 C-1.3299999,0.3925 -1.3299999,0.6425 -1.3924999,0.58 C-1.4549999,0.5175 -1.5,0.5625 -1.5,0.75 C-1.6875,0.75 -1.7325001,0.705 -1.6700001,0.6425 C-1.6075001,0.58 -1.8575001,0.58 -1.7950001,0.6425 C-1.7325001,0.705 -1.8125,0.75 -2,0.75 C-2,0.5625 -1.9549999,0.5175 -1.8924999,0.58 C-1.8299999,0.6425 -1.8299999,0.39249998 -1.8924999,0.45499998 C-1.9549999,0.5175 -2,0.4375 -2,0.25 Z" fill="darkblue" stroke="black" stroke-width="0.004" /><path d="M-2,1 C-1.8125,1 -1.7325001,0.955 -1.7950001,0.8925 C-1.8575001,0.83 -1.6075001,0.83 -1.6700001,0.8925 C-1.7325001,0.955 -1.6875,1 -1.5,1 C-1.5,1.1875 -1.5699999,1.2574999 -1.6324999,1.1949999 C-1.6949999,1.1324999 -1.6949999,1.3824999 -1.6324999,1.3199999 C-1.5699999,1.2574999 -1.5,1.3125 -1.5,1.5 C-1.6875,1.5 -1.7225001,1.465 -1.6600001,1.4025 C-1.5975001,1.34 -1.8475,1.3399999 -1.7850001,1.4025 C-1.7225001,1.465 -1.8125,1.5 -2,1.5 C-2,1.3125 -1.9549999,1.2674999 -1.8924999,1.3299999 C-1.8299999,1.3924999 -1.8299999,1.1424999 -1.8924999,1.2049999 C-1.9549999,1.2674999 -2,1.1875 -2,1 Z" fill="darkblue" stroke="black" stroke-width="0.004" /><path d="M-2,1.75 C-1.8125,1.75 -1.7225,1.715 -1.785,1.6525 C-1.8475,1.59 -1.5975,1.59 -1.66,1.6525 C-1.7225,1.715 -1.6875,1.75 -1.5,1.75 C-1.5,1.9375 -1.465,2.0275002 -1.4025,1.965 C-1.34,1.9025 -1.34,2.1525002 -1.4025,2.0900002 C-1.465,2.0275002 -1.5,2.0625 -1.5,2.25 C-1.6875,2.25 -1.8025,2.21 -1.74,2.1475 C-1.6775,2.085 -1.9275,2.085 -1.865,2.1475 C-1.8025,2.21 -1.8125,2.25 -2,2.25 C-2,2.0625 -1.965,2.0275 -1.9025,2.0900002 C-1.84,2.1525002 -1.84,1.9025 -1.9025,1.965 C-1.965,2.0275 -2,1.9375 -2,1.75 Z" fill="darkblue" stroke="black" stroke-width="0.004" /><path d="M-2,2.5 C-1.8125,2.5 -1.8025,2.46 -1.865,2.3975 C-1.9275,2.335 -1.6775,2.335 -1.74,2.3975 C-1.8025,2.46 -1.6875,2.5 -1.5,2.5 C-1.5,2.6875 -1.5450001,2.8075 -1.6075001,2.745 C-1.6700001,2.6825 -1.6700001,2.9325 -1.6075001,2.87 C-1.5450001,2.8075 -1.5,2.8125 -1.5,3 C-1.6875,3 -1.8325,2.93 -1.77,2.8675 C-1.7075,2.805 -1.9575,2.805 -1.895,2.8675 C-1.8325,2.93 -1.8125,3 -2,3 C-2,2.8125 -1.96,2.6975 -1.8975,2.76 C-1.835,2.8225 -1.835,2.5725 -1.8975,2.635 C-1.96,2.6975 -2,2.6875 -2,2.5 Z" fill="darkblue" stroke="black" stroke-width="0.004" /><path d="M-2,3.25 C-1.8125,3.25 -1.8325,3.18 -1.895,3.1175 C-1.9575,3.055 -1.7075,3.055 -1.77,3.1175 C-1.8325,3.18 -1.6875,3.25 -1.5,3.25 C-1.5,3.4375 -1.4549999,3.5175 -1.3924999,3.455 C-1.3299999,3.3925 -1.3299999,3.6425 -1.3924999,3.58 C-1.4549999,3.5175 -1.5,3.5625 -1.5,3.75 C-1.6875,3.75 -1.75,3.75 -1.6875,3.75 C-1.625,3.75 -1.875,3.75 -1.8125,3.75 C-1.75,3.75 -1.8125,3.75 -2,3.75 C-2,3.5625 -1.9300001,3.4175 -1.8675001,3.48 C-1.8050001,3.5425 -1.8050001,3.2925 -1.8675001,3.355 C-1.9300001,3.4175 -2,3.4375 -2,3.25 Z" fill="darkblue" stroke="black" stroke-width="0.004" /><path d="M-1.25,-2.75 C-1.0625,-2.75 -1,-2.75 -1.0625,-2.75 C-1.125,-2.75 -0.875,-2.75 -0.9375,-2.75 C-1,-2.75 -0.9375,-2.75 -0.75,-2.75 C-0.75,-2.5625 -0.76,-2.5525 -0.8225,-2.615 C-0.885,-2.6775 -0.885,-2.4275 -0.8225,-2.49 C-0.76,-2.5525 -0.75,-2.4375 -0.75,-2.25 C-0.9375,-2.25 -0.95250005,-2.2649999 -0.89,-2.3274999 C-0.8275,-2.3899999 -1.0775,-2.3899999 -1.015,-2.3274999 C-0.95250005,-2.2649999 -1.0625,-2.25 -1.25,-2.25 C-1.25,-2.4375 -1.26,-2.5525 -1.3225,-2.49 C-1.385,-2.4275 -1.385,-2.6775 -1.3225,-2.615 C-1.26,-2.5525 -1.25,-2.5625 -1.25,-2.75 Z" fill="darkblue" stroke="black" stroke-width="0.004" /><path d="M-1.25,-2 C-1.0625,-2 -0.9525,-2.0149999 -1.015,-2.0774999 C-1.0775,-2.1399999 -0.8275,-2.1399999 -0.89,-2.0774999 C-0.9525,-2.0149999 -0.9375,-2 -0.75,-2 C-0.75,-1.8125 -0.755,-1.7325001 -0.8175,-1.795 C-0.88,-1.8575 -0.88,-1.6075001 -0.8175,-1.6700001 C-0.755,-1.7325001 -0.75,-1.6875 -0.75,-1.5 C-0.9375,-1.5 -0.95250005,-1.515 -0.89,-1.5775 C-0.8275,-1.64 -1.0775,-1.64 -1.015,-1.5775 C-0.95250005,-1.515 -1.0625,-1.5 -1.25,-1.5 C-1.25,-1.6875 -1.235,-1.7025 -1.1725,-1.64 C-1.11,-1.5775 -1.11,-1.8275 -1.1725,-1.765 C-1.235,-1.7025 -1.25,-1.8125 -1.25,-2 Z" fill="darkblue" stroke="black" stroke-width="0.004" /><path d="M-1.25,-1.25 C-1.0625,-1.25 -0.9525,-1.265 -1.015,-1.3275 C-1.0775,-1.39 -0.8275,-1.39 -0.89,-1.3275 C-0.9525,-1.265 -0.9375,-1.25 -0.75,-1.25 C-0.75,-1.0625 -0.755,-0.9825 -0.8175,-1.045 C-0.88,-1.1075 -0.88,-0.8575 -0.8175,-0.92 C-0.755,-0.9825 -0.75,-0.9375 -0.75,-0.75 C-0.9375,-0.75 -0.9925,-0.805 -0.93,-0.8675 C-0.8675,-0.93 -1.1175001,-0.93 -1.0550001,-0.8675 C-0.9925,-0.805 -1.0625,-0.75 -1.25,-0.75 C-1.25,-0.9375 -1.235,-0.9525 -1.1725,-0.89 C-1.11,-0.8275 -1.11,-1.0775 -1.1725,-1.015 C-1.235,-0.9525 -1.25,-1.0625 -1.25,-1.25 Z" fill="darkblue" stroke="black" stroke-width="0.004" /><path d="M-1.25,-0.5 C-1.0625,-0.5 -0.9925,-0.555 -1.0550001,-0.6175 C-1.1175001,-0.68 -0.8675,-0.68 -0.93,-0.6175 C-0.9925,-0.555 -0.9375,-0.5 -0.75,-0.5 C-0.75,-0.3125 -0.695,-0.2425 -0.6325,-0.305 C-0.57,-0.36749998 -0.57,-0.11750001 -0.6325,-0.18 C-0.695,-0.2425 -0.75,-0.1875 -0.75,0 C-0.9375,0 -0.9825,-0.045000017 -0.92,-0.10750002 C-0.8575,-0.17000002 -1.1075001,-0.17000002 -1.0450001,-0.10750002 C-0.9825,-0.045000017 -1.0625,0 -1.25,0 C-1.25,-0.1875 -1.1949999,-0.2425 -1.1324999,-0.18 C-1.0699999,-0.11750001 -1.0699999,-0.3675 -1.1324999,-0.305 C-1.1949999,-0.2425 -1.25,-0.3125 -1.25,-0.5 Z" fill="darkblue" stroke="black" stroke-width="0.004" /><path d="M-1.25,0.25 C-1.0625,0.25 -0.9825,0.20499998 -1.0450001,0.14249998 C-1.1075001,0.07999998 -0.8575,0.07999998 -0.92,0.14249998 C-0.9825,0.20499998 -0.9375,0.25 -0.75,0.25 C-0.75,0.4375 -0.76,0.4475 -0.8225,0.385 C-0.885,0.3225 -0.885,0.5725 -0.8225,0.51 C-0.76,0.4475 -0.75,0.5625 -0.75,0.75 C-0.9375,0.75 -0.9925,0.82 -0.93000007,0.8825 C-0.86750007,0.945 -1.1175001,0.945 -1.0550001,0.8825 C-0.9925,0.82 -1.0625,0.75 -1.25,0.75 C-1.25,0.5625 -1.2049999,0.5175 -1.1424999,0.58 C-1.0799999,0.6425 -1.0799999,0.39249998 -1.1424999,0.45499998 C-1.2049999,0.5175 -1.25,0.4375 -1.25,0.25 Z" fill="darkblue" stroke="black" stroke-width="0.004" /><path d="M-1.25,1 C-1.0625,1 -0.9925,1.0699999 -1.0550001,1.1324999 C-1.1175001,1.1949999 -0.8675,1.1949999 -0.93,1.1324999 C-0.9925,1.0699999 -0.9375,1 -0.75,1 C-0.75,1.1875 -0.75,1.1875 -0.8125,1.125 C-0.875,1.0625 -0.875,1.3125 -0.8125,1.25 C-0.75,1.1875 -0.75,1.3125 -0.75,1.5 C-0.9375,1.5 -0.9725,1.465 -0.91,1.4025 C-0.8475,1.34 -1.0975,1.3399999 -1.0350001,1.4025 C-0.9725,1.465 -1.0625,1.5 -1.25,1.5 C-1.25,1.3125 -1.3199999,1.2574999 -1.3824999,1.3199999 C-1.4449999,1.3824999 -1.4449999,1.1324999 -1.3824999,1.1949999 C-1.3199999,1.2574999 -1.25,1.1875 -1.25,1 Z" fill="darkblue" stroke="black" stroke-width="0.004" /><path d="M-1.25,1.75 C-1.0625,1.75 -0.97249997,1.715 -1.035,1.6525 C-1.0975,1.59 -0.84749997,1.59 -0.90999997,1.6525 C-0.97249997,1.715 -0.9375,1.75 -0.75,1.75 C-0.75,1.9375 -0.685,1.9975 -0.6225,1.935 C-0.56,1.8725 -0.56,2.1225 -0.6225,2.06 C-0.685,1.9975 -0.75,2.0625 -0.75,2.25 C-0.9375,2.25 -0.9425,2.295 -0.88,2.3575 C-0.8175,2.42 -1.0675,2.42 -1.005,2.3575 C-0.9425,2.295 -1.0625,2.25 -1.25,2.25 C-1.25,2.0625 -1.215,2.0275 -1.1525,2.0900002 C-1.09,2.1525002 -1.09,1.9025 -1.1525,1.965 C-1.215,2.0275 -1.25,1.9375 -1.25,1.75 Z" fill="darkblue" stroke="black" stroke-width="0.004" /><path d="M-1.25,2.5 C-1.0625,2.5 -0.9425,2.545 -1.005,2.6075 C-1.0675,2.67 -0.8175,2.67 -0.88,2.6075 C-0.9425,2.545 -0.9375,2.5 -0.75,2.5 C-0.75,2.6875 -0.705,2.7675 -0.6425,2.705 C-0.58,2.6425 -0.58,2.8925 -0.6425,2.83 C-0.705,2.7675 -0.75,2.8125 -0.75,3 C-0.9375,3 -0.9825,2.955 -0.92,2.8925 C-0.8575,2.83 -1.1075001,2.83 -1.0450001,2.8925 C-0.9825,2.955 -1.0625,3 -1.25,3 C-1.25,2.8125 -1.2950001,2.8075 -1.3575001,2.87 C-1.4200001,2.9325 -1.4200001,2.6825 -1.3575001,2.745 C-1.2950001,2.8075 -1.25,2.6875 -1.25,2.5 Z" fill="darkblue" stroke="black" stroke-width="0.004" /><path d="M-1.25,3.25 C-1.0625,3.25 -0.9825,3.205 -1.0450001,3.1425 C-1.1075001,3.08 -0.8575,3.08 -0.92,3.1425 C-0.9825,3.205 -0.9375,3.25 -0.75,3.25 C-0.75,3.4375 -0.695,3.5075 -0.6325,3.445 C-0.57,3.3825 -0.57,3.6325 -0.6325,3.57 C-0.695,3.5075 -0.75,3.5625 -0.75,3.75 C-0.9375,3.75 -1,3.75 -0.9375,3.75 C-0.875,3.75 -1.125,3.75 -1.0625,3.75 C-1,3.75 -1.0625,3.75 -1.25,3.75 C-1.25,3.5625 -1.2049999,3.5175 -1.1424999,3.58 C-1.0799999,3.6425 -1.0799999,3.3925 -1.1424999,3.455 C-1.2049999,3.5175 -1.25,3.4375 -1.25,3.25 Z" fill="darkblue" stroke="black" stroke-width="0.004" /><path d="M-0.5,-2.75 C-0.3125,-2.75 -0.25,-2.75 -0.3125,-2.75 C-0.375,-2.75 -0.125,-2.75 -0.1875,-2.75 C-0.25,-2.75 -0.1875,-2.75 0,-2.75 C0,-2.5625 0,-2.5625 -0.0625,-2.625 C-0.125,-2.6875 -0.125,-2.4375 -0.0625,-2.5 C0,-2.5625 0,-2.4375 0,-2.25 C-0.1875,-2.25 -0.23250002,-2.245 -0.17000002,-2.1825 C-0.10750002,-2.12 -0.35750005,-2.12 -0.29500005,-2.1825 C-0.23250002,-2.245 -0.31250003,-2.25 -0.5,-2.25 C-0.5,-2.4375 -0.51,-2.5525 -0.5725,-2.49 C-0.635,-2.4275 -0.635,-2.6775 -0.5725,-2.615 C-0.51,-2.5525 -0.5,-2.5625 -0.5,-2.75 Z" fill="darkblue" stroke="black" stroke-width="0.004" /><path d="M-0.5,-2 C-0.3125,-2 -0.23250002,-1.995 -0.29500002,-1.9325 C-0.35750002,-1.87 -0.10750002,-1.87 -0.17000002,-1.9325 C-0.23250002,-1.995 -0.1875,-2 0,-2 C0,-1.8125 0.01999998,-1.7825 0.08249998,-1.845 C0.14499998,-1.9075 0.14499998,-1.6575 0.08249998,-1.72 C0.01999998,-1.7825 0,-1.6875 0,-1.5 C-0.1875,-1.5 -0.23250002,-1.495 -0.17000002,-1.4325 C-0.10750002,-1.37 -0.35750005,-1.37 -0.29500005,-1.4325 C-0.23250002,-1.495 -0.31250003,-1.5 -0.5,-1.5 C-0.5,-1.6875 -0.505,-1.7325001 -0.5675,-1.6700001 C-0.63,-1.6075001 -0.63,-1.8575001 -0.5675,-1.7950001 C-0.505,-1.7325001 -0.5,-1.8125 -0.5,-2 Z" fill="darkblue" stroke="black" stroke-width="0.004" /><path d="M-0.5,-1.25 C-0.3125,-1.25 -0.23250002,-1.245 -0.29500002,-1.1825 C-0.35750002,-1.12 -0.10750002,-1.12 -0.17000002,-1.1825 C-0.23250002,-1.245 -0.1875,-1.25 0,-1.25 C0,-1.0625 0.065,-1.0025 0.1275,-1.065 C0.19,-1.1275 0.19,-0.8775 0.1275,-0.94 C0.065,-1.0025 0,-0.9375 0,-0.75 C-0.1875,-0.75 -0.2425,-0.805 -0.18,-0.8675 C-0.11750001,-0.93 -0.3675,-0.93 -0.305,-0.8675 C-0.2425,-0.805 -0.31250003,-0.75 -0.5,-0.75 C-0.5,-0.9375 -0.505,-0.9825 -0.5675,-0.92 C-0.63,-0.8575 -0.63,-1.1075001 -0.5675,-1.0450001 C-0.505,-0.9825 -0.5,-1.0625 -0.5,-1.25 Z" fill="darkblue" stroke="black" stroke-width="0.004" /><path d="M-0.5,-0.5 C-0.3125,-0.5 -0.2425,-0.555 -0.305,-0.6175 C-0.3675,-0.68 -0.11750001,-0.68 -0.18,-0.6175 C-0.2425,-0.555 -0.1875,-0.5 0,-0.5 C0,-0.3125 -0.014999986,-0.22249997 -0.077499986,-0.285 C-0.13999999,-0.3475 -0.13999999,-0.09749997 -0.077499986,-0.15999997 C-0.014999986,-0.22249997 0,-0.1875 0,0 C-0.1875,0 -0.30250004,0.00999999 -0.24000001,0.07249999 C-0.17750007,0.13499999 -0.42750004,0.13499999 -0.36500004,0.07249999 C-0.30250004,0.00999999 -0.31250003,0 -0.5,0 C-0.5,-0.1875 -0.445,-0.2425 -0.3825,-0.18 C-0.32,-0.11750001 -0.32,-0.3675 -0.3825,-0.305 C-0.445,-0.2425 -0.5,-0.3125 -0.5,-0.5 Z" fill="darkblue" stroke="black" stroke-width="0.004" /><path d="M-0.5,0.25 C-0.3125,0.25 -0.3025,0.26 -0.365,0.3225 C-0.4275,0.385 -0.17750001,0.385 -0.24000001,0.3225 C-0.3025,0.26 -0.1875,0.25 0,0.25 C0,0.4375 0.050000012,0.4375 0.11250001,0.375 C0.17500001,0.3125 0.17500001,0.5625 0.11250001,0.5 C0.050000012,0.4375 0,0.5625 0,0.75 C-0.1875,0.75 -0.31250003,0.75 -0.25000003,0.8125 C-0.18750006,0.875 -0.43750003,0.875 -0.37500003,0.8125 C-0.31250003,0.75 -0.31250003,0.75 -0.5,0.75 C-0.5,0.5625 -0.51,0.4475 -0.5725,0.51 C-0.635,0.5725 -0.635,0.3225 -0.5725,0.385 C-0.51,0.4475 -0.5,0.4375 -0.5,0.25 Z" fill="darkblue" stroke="black" stroke-width="0.004" /><path d="M-0.5,1 C-0.3125,1 -0.3125,1 -0.375,1.0625 C-0.4375,1.125 -0.1875,1.125 -0.25,1.0625 C-0.3125,1 -0.1875,1 0,1 C0,1.1875 0,1.2375 0.0625,1.175 C0.125,1.1125 0.125,1.3625 0.0625,1.3 C0,1.2375 0,1.3125 0,1.5 C-0.1875,1.5 -0.25250003,1.435 -0.19,1.3725 C-0.1275,1.31 -0.3775,1.31 -0.315,1.3725 C-0.25250003,1.435 -0.31250003,1.5 -0.5,1.5 C-0.5,1.3125 -0.5,1.1875 -0.5625,1.25 C-0.625,1.3125 -0.625,1.0625 -0.5625,1.125 C-0.5,1.1875 -0.5,1.1875 -0.5,1 Z" fill="darkblue" stroke="black" stroke-width="0.004" /><path d="M-0.5,1.75 C-0.3125,1.75 -0.2525,1.685 -0.315,1.6225 C-0.3775,1.56 -0.1275,1.56 -0.19,1.6225 C-0.2525,1.685 -0.1875,1.75 0,1.75 C0,1.9375 0.014999986,2.0475001 0.077499986,1.985 C0.13999999,1.9225 0.13999999,2.1725001 0.077499986,2.1100001 C0.014999986,2.0475001 0,2.0625 0,2.25 C-0.1875,2.25 -0.23250002,2.205 -0.17000002,2.1425 C-0.10750002,2.08 -0.35750002,2.08 -0.29500002,2.1425 C-0.23250002,2.205 -0.31250003,2.25 -0.5,2.25 C-0.5,2.0625 -0.435,1.9975 -0.3725,2.06 C-0.31,2.1225 -0.31,1.8725 -0.3725,1.935 C-0.435,1.9975 -0.5,1.9375 -0.5,1.75 Z" fill="darkblue" stroke="black" stroke-width="0.004" /><path d="M-0.5,2.5 C-0.3125,2.5 -0.23250002,2.455 -0.29500002,2.3925 C-0.35750002,2.33 -0.10750002,2.33 -0.17000002,2.3925 C-0.23250002,2.455 -0.1875,2.5 0,2.5 C0,2.6875 -0.050000012,2.7375 -0.11250001,2.675 C-0.17500001,2.6125 -0.17500001,2.8625 -0.11250001,2.8 C-0.050000012,2.7375 0,2.8125 0,3 C-0.1875,3 -0.2425,2.945 -0.18,2.8825 C-0.11750001,2.82 -0.3675,2.82 -0.305,2.8825 C-0.2425,2.945 -0.31250003,3 -0.5,3 C-0.5,2.8125 -0.45499998,2.7675 -0.39249998,2.83 C-0.32999998,2.8925 -0.32999998,2.6425 -0.39249998,2.705 C-0.45499998,2.7675 -0.5,2.6875 -0.5,2.5 Z" fill="darkblue" stroke="black" stroke-width="0.004" /><path d="M-0.5,3.25 C-0.3125,3.25 -0.2425,3.195 -0.305,3.1325 C-0.3675,3.07 -0.11750001,3.07 -0.18,3.1325 C-0.2425,3.195 -0.1875,3.25 0,3.25 C0,3.4375 0.03999996,3.4475 0.10249996,3.385 C0.16499996,3.3225 0.16499996,3.5725 0.10249996,3.51 C0.03999996,3.4475 0,3.5625 0,3.75 C-0.1875,3.75 -0.25000003,3.75 -0.1875,3.75 C-0.125,3.75 -0.375,3.75 -0.31250003,3.75 C-0.25000003,3.75 -0.31250003,3.75 -0.5,3.75 C-0.5,3.5625 -0.445,3.5075 -0.3825,3.57 C-0.32,3.6325 -0.32,3.3825 -0.3825,3.445 C-0.445,3.5075 -0.5,3.4375 -0.5,3.25 Z" fill="darkblue" stroke="black" stroke-width="0.004" /><path d="M0.25,-2.75 C0.4375,-2.75 0.5,-2.75 0.4375,-2.75 C0.375,-2.75 0.625,-2.75 0.5625,-2.75 C0.5,-2.75 0.5625,-2.75 0.75,-2.75 C0.75,-2.5625 0.7,-2.5125 0.6375,-2.575 C0.575,-2.6375 0.575,-2.3875 0.6375,-2.45 C0.7,-2.5125 0.75,-2.4375 0.75,-2.25 C0.5625,-2.25 0.46749997,-2.27 0.53,-2.3325 C0.5925,-2.395 0.34249997,-2.395 0.40499997,-2.3325 C0.46749997,-2.27 0.43749997,-2.25 0.24999997,-2.25 C0.25,-2.4375 0.25,-2.5625 0.1875,-2.5 C0.125,-2.4375 0.125,-2.6875 0.1875,-2.625 C0.25,-2.5625 0.25,-2.5625 0.25,-2.75 Z" fill="darkblue" stroke="black" stroke-width="0.004" /><path d="M0.25,-2 C0.4375,-2 0.4675,-2.02 0.405,-2.0825 C0.3425,-2.145 0.5925,-2.145 0.53,-2.0825 C0.4675,-2.02 0.5625,-2 0.75,-2 C0.75,-1.8125 0.71000004,-1.7725 0.64750004,-1.835 C0.58500004,-1.8975 0.585,-1.6475 0.64750004,-1.71 C0.71000004,-1.7725 0.75,-1.6875 0.75,-1.5 C0.5625,-1.5 0.49749997,-1.565 0.56,-1.6275 C0.6225,-1.69 0.3725,-1.69 0.435,-1.6275 C0.49749997,-1.565 0.43749997,-1.5 0.24999997,-1.5 C0.25,-1.6875 0.26999998,-1.7825 0.33249998,-1.72 C0.395,-1.6575 0.395,-1.9075 0.33249998,-1.845 C0.26999998,-1.7825 0.25,-1.8125 0.25,-2 Z" fill="darkblue" stroke="black" stroke-width="0.004" /><path d="M0.25,-1.25 C0.4375,-1.25 0.4975,-1.315 0.435,-1.3775 C0.3725,-1.44 0.6225,-1.44 0.56,-1.3775 C0.4975,-1.315 0.5625,-1.25 0.75,-1.25 C0.75,-1.0625 0.78999996,-1.0525 0.85249996,-1.115 C0.91499996,-1.1775 0.91499996,-0.9275 0.85249996,-0.99 C0.78999996,-1.0525 0.75,-0.9375 0.75,-0.75 C0.5625,-0.75 0.5275,-0.735 0.59,-0.6725 C0.6525,-0.61 0.40249997,-0.61 0.46499997,-0.6725 C0.5275,-0.735 0.43749997,-0.75 0.24999997,-0.75 C0.25,-0.9375 0.315,-1.0025 0.3775,-0.94 C0.44,-0.8775 0.44,-1.1275 0.3775,-1.065 C0.315,-1.0025 0.25,-1.0625 0.25,-1.25 Z" fill="darkblue" stroke="black" stroke-width="0.004" /><path d="M0.25,-0.5 C0.4375,-0.5 0.52750003,-0.485 0.465,-0.4225 C0.4025,-0.36 0.65250003,-0.36 0.59000003,-0.4225 C0.52750003,-0.485 0.5625,-0.5 0.75,-0.5 C0.75,-0.3125 0.73,-0.2925 0.6675,-0.355 C0.605,-0.41750002 0.605,-0.16750002 0.6675,-0.23000002 C0.73,-0.2925 0.75,-0.1875 0.75,0 C0.5625,0 0.4375,-0.050000012 0.5,-0.11250001 C0.5625,-0.17500001 0.3125,-0.17500001 0.375,-0.11250001 C0.4375,-0.050000012 0.43749997,0 0.24999997,0 C0.25,-0.1875 0.23500001,-0.22250003 0.17250001,-0.16000003 C0.110000014,-0.09749997 0.110000014,-0.3475 0.17250001,-0.285 C0.23500001,-0.22250003 0.25,-0.3125 0.25,-0.5 Z" fill="darkblue" stroke="black" stroke-width="0.004" /><path d="M0.25,0.25 C0.4375,0.25 0.4375,0.19999999 0.375,0.13749999 C0.3125,0.07499999 0.5625,0.07499999 0.5,0.13749999 C0.4375,0.19999999 0.5625,0.25 0.75,0.25 C0.75,0.4375 0.77,0.4675 0.8325,0.40500003 C0.895,0.34250003 0.895,0.59250003 0.8325,0.53000003 C0.77,0.4675 0.75,0.5625 0.75,0.75 C0.5625,0.75 0.48749998,0.75 0.54999995,0.6875 C0.6125,0.625 0.3625,0.625 0.425,0.6875 C0.48749998,0.75 0.43749997,0.75 0.24999997,0.75 C0.25,0.5625 0.3,0.4375 0.3625,0.5 C0.425,0.5625 0.425,0.3125 0.3625,0.375 C0.3,0.4375 0.25,0.4375 0.25,0.25 Z" fill="darkblue" stroke="black" stroke-width="0.004" /><path d="M0.25,1 C0.4375,1 0.4875,1 0.425,0.9375 C0.3625,0.875 0.6125,0.875 0.55,0.9375 C0.4875,1 0.5625,1 0.75,1 C0.75,1.1875 0.78,1.2075 0.8425,1.145 C0.905,1.0825 0.905,1.3325 0.8425,1.27 C0.78,1.2075 0.75,1.3125 0.75,1.5 C0.5625,1.5 0.54749995,1.485 0.61,1.4225 C0.6725,1.36 0.4225,1.36 0.485,1.4225 C0.54749995,1.485 0.43749997,1.5 0.24999997,1.5 C0.25,1.3125 0.25,1.2375 0.3125,1.3 C0.375,1.3625 0.375,1.1125 0.3125,1.175 C0.25,1.2375 0.25,1.1875 0.25,1 Z" fill="darkblue" stroke="black" stroke-width="0.004" /><path d="M0.25,1.75 C0.4375,1.75 0.5475,1.735 0.485,1.6725 C0.4225,1.61 0.6725,1.61 0.61,1.6725 C0.5475,1.735 0.5625,1.75 0.75,1.75 C0.75,1.9375 0.78499997,2.0275002 0.84749997,1.965 C0.90999997,1.9025 0.90999997,2.1525002 0.84749997,2.0900002 C0.78499997,2.0275002 0.75,2.0625 0.75,2.25 C0.5625,2.25 0.48749998,2.3 0.54999995,2.3625 C0.61249995,2.425 0.36249998,2.425 0.42499998,2.3625 C0.48749998,2.3 0.43749997,2.25 0.24999997,2.25 C0.25,2.0625 0.265,2.0475001 0.3275,2.1100001 C0.39,2.1725001 0.39,1.9225 0.3275,1.985 C0.265,2.0475001 0.25,1.9375 0.25,1.75 Z" fill="darkblue" stroke="black" stroke-width="0.004" /><path d="M0.25,2.5 C0.4375,2.5 0.4875,2.55 0.425,2.6125 C0.3625,2.675 0.6125,2.675 0.55,2.6125 C0.4875,2.55 0.5625,2.5 0.75,2.5 C0.75,2.6875 0.705,2.8075 0.6425,2.745 C0.58,2.6825 0.58,2.9325 0.6425,2.87 C0.705,2.8075 0.75,2.8125 0.75,3 C0.5625,3 0.44749996,2.96 0.51,2.8975 C0.5725,2.835 0.3225,2.835 0.385,2.8975 C0.44749996,2.96 0.43749997,3 0.24999997,3 C0.25,2.8125 0.19999999,2.7375 0.13749999,2.8 C0.07499999,2.8625 0.07499999,2.6125 0.13749999,2.675 C0.19999999,2.7375 0.25,2.6875 0.25,2.5 Z" fill="darkblue" stroke="black" stroke-width="0.004" /><path d="M0.25,3.25 C0.4375,3.25 0.4475,3.21 0.385,3.1475 C0.3225,3.085 0.5725,3.085 0.51,3.1475 C0.4475,3.21 0.5625,3.25 0.75,3.25 C0.75,3.4375 0.775,3.5375 0.8375,3.475 C0.9,3.4125 0.9,3.6625 0.8375,3.6 C0.775,3.5375 0.75,3.5625 0.75,3.75 C0.5625,3.75 0.49999997,3.75 0.5625,3.75 C0.625,3.75 0.375,3.75 0.43749997,3.75 C0.49999997,3.75 0.43749997,3.75 0.24999997,3.75 C0.25,3.5625 0.29,3.4475 0.3525,3.51 C0.415,3.5725 0.415,3.3225 0.3525,3.385 C0.29,3.4475 0.25,3.4375 0.25,3.25 Z" fill="darkblue" stroke="black" stroke-width="0.004" /><path d="M1,-2.75 C1.1875,-2.75 1.25,-2.75 1.1875,-2.75 C1.125,-2.75 1.375,-2.75 1.3125,-2.75 C1.25,-2.75 1.3125,-2.75 1.5,-2.75 C1.5,-2.5625 1.45,-2.5125 1.3875,-2.575 C1.325,-2.6375 1.325,-2.3875 1.3875,-2.45 C1.45,-2.5125 1.5,-2.4375 1.5,-2.25 C1.3125,-2.25 1.2275,-2.21 1.29,-2.1475 C1.3525,-2.085 1.1025,-2.085 1.165,-2.1475 C1.2275,-2.21 1.1875,-2.25 1,-2.25 C1,-2.4375 0.95,-2.5125 0.8875,-2.45 C0.825,-2.3875 0.825,-2.6375 0.8875,-2.575 C0.95,-2.5125 1,-2.5625 1,-2.75 Z" fill="darkblue" stroke="black" stroke-width="0.004" /><path d="M1,-2 C1.1875,-2 1.2275,-1.96 1.165,-1.8975 C1.1025,-1.835 1.3525,-1.835 1.29,-1.8975 C1.2275,-1.96 1.3125,-2 1.5,-2 C1.5,-1.8125 1.4300001,-1.7425001 1.3675001,-1.8050001 C1.3050001,-1.8675001 1.3050001,-1.6175001 1.3675001,-1.6800001 C1.4300001,-1.7425001 1.5,-1.6875 1.5,-1.5 C1.3125,-1.5 1.1975,-1.54 1.26,-1.6025 C1.3225,-1.665 1.0725,-1.665 1.135,-1.6025 C1.1975,-1.54 1.1875,-1.5 1,-1.5 C1,-1.6875 0.96000004,-1.7725 0.89750004,-1.71 C0.83500004,-1.6475 0.83500004,-1.8975 0.89750004,-1.835 C0.96000004,-1.7725 1,-1.8125 1,-2 Z" fill="darkblue" stroke="black" stroke-width="0.004" /><path d="M1,-1.25 C1.1875,-1.25 1.1975,-1.29 1.135,-1.3525 C1.0725,-1.415 1.3225,-1.415 1.26,-1.3525 C1.1975,-1.29 1.3125,-1.25 1.5,-1.25 C1.5,-1.0625 1.4449999,-0.9325 1.3824999,-0.995 C1.3199999,-1.0575 1.3199999,-0.8075 1.3824999,-0.87 C1.4449999,-0.9325 1.5,-0.9375 1.5,-0.75 C1.3125,-0.75 1.2075,-0.73 1.27,-0.6675 C1.3325,-0.605 1.0825,-0.605 1.145,-0.6675 C1.2075,-0.73 1.1875,-0.75 1,-0.75 C1,-0.9375 1.04,-1.0525 1.1025,-0.99 C1.165,-0.9275 1.165,-1.1775 1.1025,-1.115 C1.04,-1.0525 1,-1.0625 1,-1.25 Z" fill="darkblue" stroke="black" stroke-width="0.004" /><path d="M1,-0.5 C1.1875,-0.5 1.2075,-0.48000002 1.145,-0.41750002 C1.0825,-0.355 1.3325,-0.355 1.27,-0.41750002 C1.2075,-0.48000002 1.3125,-0.5 1.5,-0.5 C1.5,-0.3125 1.52,-0.2825 1.5825,-0.34499997 C1.645,-0.40749997 1.645,-0.15749997 1.5825,-0.21999997 C1.52,-0.2825 1.5,-0.1875 1.5,0 C1.3125,0 1.2175,-0.01999998 1.28,-0.08249998 C1.3425,-0.14499998 1.0925,-0.14500004 1.155,-0.08249998 C1.2175,-0.01999998 1.1875,0 1,0 C1,-0.1875 0.98,-0.29250002 0.9175,-0.23000002 C0.855,-0.16750002 0.855,-0.4175 0.9175,-0.35500002 C0.98,-0.29250002 1,-0.3125 1,-0.5 Z" fill="darkblue" stroke="black" stroke-width="0.004" /><path d="M1,0.25 C1.1875,0.25 1.2175,0.23000002 1.155,0.16749999 C1.0925,0.10499999 1.3425,0.10499999 1.28,0.16749999 C1.2175,0.23000002 1.3125,0.25 1.5,0.25 C1.5,0.4375 1.45,0.4875 1.3875,0.425 C1.325,0.3625 1.325,0.6125 1.3875,0.55 C1.45,0.4875 1.5,0.5625 1.5,0.75 C1.3125,0.75 1.2075,0.72 1.27,0.6575 C1.3325,0.595 1.0825,0.59499997 1.145,0.65749997 C1.2075,0.72 1.1875,0.75 1,0.75 C1,0.5625 1.02,0.4675 1.0825,0.53 C1.145,0.5925 1.145,0.3425 1.0825,0.405 C1.02,0.4675 1,0.4375 1,0.25 Z" fill="darkblue" stroke="black" stroke-width="0.004" /><path d="M1,1 C1.1875,1 1.2075,0.97 1.145,0.9075 C1.0825,0.845 1.3325,0.845 1.27,0.9075 C1.2075,0.97 1.3125,1 1.5,1 C1.5,1.1875 1.49,1.1975 1.4275,1.135 C1.365,1.0725 1.365,1.3225 1.4275,1.26 C1.49,1.1975 1.5,1.3125 1.5,1.5 C1.3125,1.5 1.2774999,1.465 1.3399999,1.4025 C1.4024999,1.34 1.1525,1.3399999 1.2149999,1.4025 C1.2774999,1.465 1.1875,1.5 1,1.5 C1,1.3125 1.03,1.2075 1.0925,1.27 C1.155,1.3325 1.155,1.0825 1.0925,1.145 C1.03,1.2075 1,1.1875 1,1 Z" fill="darkblue" stroke="black" stroke-width="0.004" /><path d="M1,1.75 C1.1875,1.75 1.2775,1.715 1.215,1.6525 C1.1525,1.59 1.4025,1.59 1.34,1.6525 C1.2775,1.715 1.3125,1.75 1.5,1.75 C1.5,1.9375 1.485,2.0275002 1.4225,1.965 C1.36,1.9025 1.36,2.1525002 1.4225,2.0900002 C1.485,2.0275002 1.5,2.0625 1.5,2.25 C1.3125,2.25 1.3075,2.295 1.37,2.3575 C1.4325,2.42 1.1825,2.42 1.245,2.3575 C1.3075,2.295 1.1875,2.25 1,2.25 C1,2.0625 1.035,2.0275 1.0975,2.0900002 C1.16,2.1525002 1.16,1.9025 1.0975,1.965 C1.035,2.0275 1,1.9375 1,1.75 Z" fill="darkblue" stroke="black" stroke-width="0.004" /><path d="M1,2.5 C1.1875,2.5 1.3075,2.545 1.245,2.6075 C1.1825,2.67 1.4325,2.67 1.37,2.6075 C1.3075,2.545 1.3125,2.5 1.5,2.5 C1.5,2.6875 1.56,2.6775 1.6225,2.615 C1.685,2.5525 1.685,2.8025 1.6225,2.74 C1.56,2.6775 1.5,2.8125 1.5,3 C1.3125,3 1.2874999,2.975 1.3499999,2.9125 C1.4124999,2.85 1.1625,2.85 1.2249999,2.9125 C1.2874999,2.975 1.1875,3 1,3 C1,2.8125 0.955,2.8075 0.8925,2.87 C0.83,2.9325 0.83,2.6825 0.8925,2.745 C0.955,2.8075 1,2.6875 1,2.5 Z" fill="darkblue" stroke="black" stroke-width="0.004" /><path d="M1,3.25 C1.1875,3.25 1.2875,3.225 1.225,3.1625 C1.1625,3.1 1.4125,3.1 1.35,3.1625 C1.2875,3.225 1.3125,3.25 1.5,3.25 C1.5,3.4375 1.53,3.4575 1.5925,3.395 C1.655,3.3325 1.655,3.5825 1.5925,3.52 C1.53,3.4575 1.5,3.5625 1.5,3.75 C1.3125,3.75 1.25,3.75 1.3125,3.75 C1.375,3.75 1.125,3.75 1.1875,3.75 C1.25,3.75 1.1875,3.75 1,3.75 C1,3.5625 1.025,3.5375 1.0875,3.6 C1.15,3.6625 1.15,3.4125 1.0875,3.475 C1.025,3.5375 1,3.4375 1,3.25 Z" fill="darkblue" stroke="black" stroke-width="0.004" /><path d="M1.75,-2.75 C1.9375,-2.75 2,-2.75 1.9375,-2.75 C1.875,-2.75 2.125,-2.75 2.0625,-2.75 C2,-2.75 2.0625,-2.75 2.25,-2.75 C2.25,-2.5625 2.305,-2.4925 2.3675,-2.555 C2.43,-2.6175 2.43,-2.3675 2.3675,-2.43 C2.305,-2.4925 2.25,-2.4375 2.25,-2.25 C2.0625,-2.25 2.0075,-2.18 2.07,-2.1175 C2.1325,-2.055 1.8824999,-2.055 1.9449999,-2.1175 C2.0075,-2.18 1.9375,-2.25 1.75,-2.25 C1.75,-2.4375 1.7,-2.5125 1.6375,-2.45 C1.575,-2.3875 1.575,-2.6375 1.6375,-2.575 C1.7,-2.5125 1.75,-2.5625 1.75,-2.75 Z" fill="darkblue" stroke="black" stroke-width="0.004" /><path d="M1.75,-2 C1.9375,-2 2.0075,-1.9300001 1.9449999,-1.8675001 C1.8824999,-1.8050001 2.1325,-1.8050001 2.07,-1.8675001 C2.0075,-1.9300001 2.0625,-2 2.25,-2 C2.25,-1.8125 2.25,-1.7625 2.3125,-1.825 C2.375,-1.8875 2.375,-1.6375 2.3125,-1.7 C2.25,-1.7625 2.25,-1.6875 2.25,-1.5 C2.0625,-1.5 2.0675,-1.4449999 2.13,-1.3824999 C2.1924999,-1.3199999 1.9425,-1.3199999 2.0049999,-1.3824999 C2.0675,-1.4449999 1.9375,-1.5 1.75,-1.5 C1.75,-1.6875 1.6800001,-1.7425001 1.6175001,-1.6800001 C1.5550001,-1.6175001 1.5550001,-1.8675001 1.6175001,-1.8050001 C1.6800001,-1.7425001 1.75,-1.8125 1.75,-2 Z" fill="darkblue" stroke="black" stroke-width="0.004" /><path d="M1.75,-1.25 C1.9375,-1.25 2.0675,-1.1949999 2.005,-1.1324999 C1.9425,-1.0699999 2.1925,-1.0699999 2.13,-1.1324999 C2.0675,-1.1949999 2.0625,-1.25 2.25,-1.25 C2.25,-1.0625 2.2350001,-0.97249997 2.1725001,-1.035 C2.1100001,-1.0975 2.1100001,-0.84749997 2.1725001,-0.90999997 C2.2350001,-0.97249997 2.25,-0.9375 2.25,-0.75 C2.0625,-0.75 1.9675,-0.77 2.03,-0.8325 C2.0925,-0.895 1.8425,-0.89500004 1.905,-0.8325 C1.9675,-0.77 1.9375,-0.75 1.75,-0.75 C1.75,-0.9375 1.6949999,-0.9325 1.6324999,-0.87 C1.5699999,-0.8075 1.5699999,-1.0575 1.6324999,-0.995 C1.6949999,-0.9325 1.75,-1.0625 1.75,-1.25 Z" fill="darkblue" stroke="black" stroke-width="0.004" /><path d="M1.75,-0.5 C1.9375,-0.5 1.9675,-0.52 1.905,-0.5825 C1.8425,-0.645 2.0925,-0.645 2.03,-0.5825 C1.9675,-0.52 2.0625,-0.5 2.25,-0.5 C2.25,-0.3125 2.2,-0.2625 2.1375,-0.325 C2.075,-0.3875 2.075,-0.13749999 2.1375,-0.19999999 C2.2,-0.2625 2.25,-0.1875 2.25,0 C2.0625,0 1.9875,0.050000012 2.05,0.11250001 C2.1125,0.17500001 1.8625,0.17500001 1.925,0.11250001 C1.9875,0.050000012 1.9375,0 1.75,0 C1.75,-0.1875 1.77,-0.2825 1.8325,-0.22000003 C1.895,-0.15750003 1.895,-0.4075 1.8325,-0.345 C1.77,-0.2825 1.75,-0.3125 1.75,-0.5 Z" fill="darkblue" stroke="black" stroke-width="0.004" /><path d="M1.75,0.25 C1.9375,0.25 1.9875,0.3 1.925,0.3625 C1.8625,0.425 2.1125,0.425 2.05,0.3625 C1.9875,0.3 2.0625,0.25 2.25,0.25 C2.25,0.4375 2.25,0.4875 2.3125,0.425 C2.375,0.3625 2.375,0.6125 2.3125,0.55 C2.25,0.4875 2.25,0.5625 2.25,0.75 C2.0625,0.75 1.9475,0.76 2.01,0.8225 C2.0725,0.885 1.8225,0.885 1.885,0.8225 C1.9475,0.76 1.9375,0.75 1.75,0.75 C1.75,0.5625 1.7,0.4875 1.6375,0.55 C1.575,0.6125 1.575,0.3625 1.6375,0.425 C1.7,0.4875 1.75,0.4375 1.75,0.25 Z" fill="darkblue" stroke="black" stroke-width="0.004" /><path d="M1.75,1 C1.9375,1 1.9475,1.01 1.885,1.0725 C1.8225,1.135 2.0725,1.135 2.01,1.0725 C1.9475,1.01 2.0625,1 2.25,1 C2.25,1.1875 2.195,1.3175 2.1325,1.255 C2.07,1.1925 2.07,1.4425 2.1325,1.38 C2.195,1.3175 2.25,1.3125 2.25,1.5 C2.0625,1.5 2.0275,1.515 2.09,1.5775 C2.1525,1.64 1.9024999,1.64 1.9649999,1.5775 C2.0275,1.515 1.9375,1.5 1.75,1.5 C1.75,1.3125 1.74,1.1975 1.6775,1.26 C1.615,1.3225 1.615,1.0725 1.6775,1.135 C1.74,1.1975 1.75,1.1875 1.75,1 Z" fill="darkblue" stroke="black" stroke-width="0.004" /><path d="M1.75,1.75 C1.9375,1.75 2.0275002,1.765 1.965,1.8275 C1.9025,1.89 2.1525002,1.89 2.0900002,1.8275 C2.0275002,1.765 2.0625,1.75 2.25,1.75 C2.25,1.9375 2.25,1.9375 2.1875,1.875 C2.125,1.8125 2.125,2.0625 2.1875,2 C2.25,1.9375 2.25,2.0625 2.25,2.25 C2.0625,2.25 1.9275,2.19 1.99,2.1275 C2.0525,2.065 1.8025,2.065 1.865,2.1275 C1.9275,2.19 1.9375,2.25 1.75,2.25 C1.75,2.0625 1.735,2.0275 1.6725,2.09 C1.61,2.1525002 1.61,1.9025 1.6725,1.965 C1.735,2.0275 1.75,1.9375 1.75,1.75 Z" fill="darkblue" stroke="black" stroke-width="0.004" /><path d="M1.75,2.5 C1.9375,2.5 1.9275,2.44 1.865,2.3775 C1.8025,2.315 2.0525,2.315 1.99,2.3775 C1.9275,2.44 2.0625,2.5 2.25,2.5 C2.25,2.6875 2.19,2.7475 2.1275,2.685 C2.065,2.6225 2.065,2.8725 2.1275,2.81 C2.19,2.7475 2.25,2.8125 2.25,3 C2.0625,3 1.9575,2.97 2.02,2.9075 C2.0825,2.845 1.8325,2.845 1.895,2.9075 C1.9575,2.97 1.9375,3 1.75,3 C1.75,2.8125 1.81,2.6775 1.8725,2.74 C1.935,2.8025 1.935,2.5525 1.8725,2.615 C1.81,2.6775 1.75,2.6875 1.75,2.5 Z" fill="darkblue" stroke="black" stroke-width="0.004" /><path d="M1.75,3.25 C1.9375,3.25 1.9575,3.22 1.895,3.1575 C1.8325,3.095 2.0825,3.095 2.02,3.1575 C1.9575,3.22 2.0625,3.25 2.25,3.25 C2.25,3.4375 2.2,3.4875 2.1375,3.425 C2.075,3.3625 2.075,3.6125 2.1375,3.55 C2.2,3.4875 2.25,3.5625 2.25,3.75 C2.0625,3.75 2,3.75 2.0625,3.75 C2.125,3.75 1.875,3.75 1.9375,3.75 C2,3.75 1.9375,3.75 1.75,3.75 C1.75,3.5625 1.78,3.4575 1.8425,3.52 C1.905,3.5825 1.905,3.3325 1.8425,3.395 C1.78,3.4575 1.75,3.4375 1.75,3.25 Z" fill="darkblue" stroke="black" stroke-width="0.004" /><path d="M2.5,-2.75 C2.6875,-2.75 2.75,-2.75 2.6875,-2.75 C2.625,-2.75 2.875,-2.75 2.8125,-2.75 C2.75,-2.75 2.8125,-2.75 3,-2.75 C3,-2.5625 2.93,-2.4925 2.8675,-2.555 C2.805,-2.6175 2.805,-2.3675 2.8675,-2.43 C2.93,-2.4925 3,-2.4375 3,-2.25 C2.8125,-2.25 2.7375,-2.25 2.8,-2.3125 C2.8625,-2.375 2.6125,-2.375 2.675,-2.3125 C2.7375,-2.25 2.6875,-2.25 2.5,-2.25 C2.5,-2.4375 2.555,-2.4925 2.6175,-2.43 C2.68,-2.3675 2.68,-2.6175 2.6175,-2.555 C2.555,-2.4925 2.5,-2.5625 2.5,-2.75 Z" fill="darkblue" stroke="black" stroke-width="0.004" /><path d="M2.5,-2 C2.6875,-2 2.7375,-2 2.675,-2.0625 C2.6125,-2.125 2.8625,-2.125 2.8,-2.0625 C2.7375,-2 2.8125,-2 3,-2 C3,-1.8125 3.045,-1.7325001 3.1075,-1.795 C3.17,-1.8575 3.17,-1.6075001 3.1075,-1.6700001 C3.045,-1.7325001 3,-1.6875 3,-1.5 C2.8125,-1.5 2.7775,-1.485 2.84,-1.4225 C2.9025,-1.36 2.6525,-1.36 2.715,-1.4225 C2.7775,-1.485 2.6875,-1.5 2.5,-1.5 C2.5,-1.6875 2.5,-1.7625 2.5625,-1.7 C2.625,-1.6375 2.625,-1.8875 2.5625,-1.825 C2.5,-1.7625 2.5,-1.8125 2.5,-2 Z" fill="darkblue" stroke="black" stroke-width="0.004" /><path d="M2.5,-1.25 C2.6875,-1.25 2.7775002,-1.235 2.715,-1.1725 C2.6525,-1.11 2.9025002,-1.11 2.8400002,-1.1725 C2.7775002,-1.235 2.8125,-1.25 3,-1.25 C3,-1.0625 3.01,-1.0225 3.0725,-1.085 C3.135,-1.1475 3.135,-0.8975 3.0725,-0.96 C3.01,-1.0225 3,-0.9375 3,-0.75 C2.8125,-0.75 2.7375,-0.7 2.8,-0.6375 C2.8625,-0.575 2.6125,-0.575 2.675,-0.6375 C2.7375,-0.7 2.6875,-0.75 2.5,-0.75 C2.5,-0.9375 2.4850001,-0.9725 2.4225001,-0.91 C2.3600001,-0.84749997 2.3600001,-1.0975 2.4225001,-1.035 C2.4850001,-0.9725 2.5,-1.0625 2.5,-1.25 Z" fill="darkblue" stroke="black" stroke-width="0.004" /><path d="M2.5,-0.5 C2.6875,-0.5 2.7375,-0.45 2.675,-0.3875 C2.6125,-0.325 2.8625,-0.325 2.8,-0.3875 C2.7375,-0.45 2.8125,-0.5 3,-0.5 C3,-0.3125 2.93,-0.2425 2.8675,-0.305 C2.805,-0.3675 2.805,-0.11750001 2.8675,-0.18 C2.93,-0.2425 3,-0.1875 3,0 C2.8125,0 2.7375,0 2.8,-0.0625 C2.8625,-0.125 2.6125,-0.125 2.675,-0.0625 C2.7375,0 2.6875,0 2.5,0 C2.5,-0.1875 2.45,-0.2625 2.3875,-0.19999999 C2.325,-0.13749999 2.325,-0.3875 2.3875,-0.325 C2.45,-0.2625 2.5,-0.3125 2.5,-0.5 Z" fill="darkblue" stroke="black" stroke-width="0.004" /><path d="M2.5,0.25 C2.6875,0.25 2.7375,0.25 2.675,0.1875 C2.6125,0.125 2.8625,0.125 2.8,0.1875 C2.7375,0.25 2.8125,0.25 3,0.25 C3,0.4375 2.975,0.5375 2.9125,0.475 C2.85,0.4125 2.85,0.6625 2.9125,0.6 C2.975,0.5375 3,0.5625 3,0.75 C2.8125,0.75 2.8175,0.805 2.88,0.8675 C2.9424999,0.93000007 2.6924999,0.93 2.7549999,0.8675 C2.8175,0.805 2.6875,0.75 2.5,0.75 C2.5,0.5625 2.5,0.4875 2.5625,0.55 C2.625,0.6125 2.625,0.3625 2.5625,0.425 C2.5,0.4875 2.5,0.4375 2.5,0.25 Z" fill="darkblue" stroke="black" stroke-width="0.004" /><path d="M2.5,1 C2.6875,1 2.8175,1.0550001 2.755,1.1175001 C2.6925,1.1800001 2.9425,1.1800001 2.88,1.1175001 C2.8175,1.0550001 2.8125,1 3,1 C3,1.1875 3.0349998,1.2775 3.0974998,1.215 C3.1599998,1.1525 3.1599998,1.4025 3.0974998,1.34 C3.0349998,1.2775 3,1.3125 3,1.5 C2.8125,1.5 2.6875,1.5 2.75,1.5625 C2.8125,1.625 2.5625,1.625 2.625,1.5625 C2.6875,1.5 2.6875,1.5 2.5,1.5 C2.5,1.3125 2.445,1.3175 2.3825,1.38 C2.32,1.4425 2.32,1.1925 2.3825,1.255 C2.445,1.3175 2.5,1.1875 2.5,1 Z" fill="darkblue" stroke="black" stroke-width="0.004" /><path d="M2.5,1.75 C2.6875,1.75 2.6875,1.75 2.625,1.8125 C2.5625,1.875 2.8125,1.875 2.75,1.8125 C2.6875,1.75 2.8125,1.75 3,1.75 C3,1.9375 2.945,2.0675 2.8825,2.005 C2.82,1.9425 2.82,2.1925 2.8825,2.13 C2.945,2.0675 3,2.0625 3,2.25 C2.8125,2.25 2.7475,2.31 2.81,2.3725 C2.8725,2.435 2.6225,2.435 2.685,2.3725 C2.7475,2.31 2.6875,2.25 2.5,2.25 C2.5,2.0625 2.5,1.9375 2.4375,2 C2.375,2.0625 2.375,1.8125 2.4375,1.875 C2.5,1.9375 2.5,1.9375 2.5,1.75 Z" fill="darkblue" stroke="black" stroke-width="0.004" /><path d="M2.5,2.5 C2.6875,2.5 2.7475,2.56 2.685,2.6225 C2.6225,2.685 2.8725,2.685 2.81,2.6225 C2.7475,2.56 2.8125,2.5 3,2.5 C3,2.6875 3.07,2.6675 3.1325,2.605 C3.195,2.5425 3.195,2.7925 3.1325,2.73 C3.07,2.6675 3,2.8125 3,3 C2.8125,3 2.7375,3.05 2.8,3.1125 C2.8625,3.175 2.6125,3.175 2.675,3.1125 C2.7375,3.05 2.6875,3 2.5,3 C2.5,2.8125 2.44,2.7475 2.3775,2.81 C2.315,2.8725 2.315,2.6225 2.3775,2.685 C2.44,2.7475 2.5,2.6875 2.5,2.5 Z" fill="darkblue" stroke="black" stroke-width="0.004" /><path d="M2.5,3.25 C2.6875,3.25 2.7375,3.3 2.675,3.3625 C2.6125,3.425 2.8625,3.425 2.8,3.3625 C2.7375,3.3 2.8125,3.25 3,3.25 C3,3.4375 2.97,3.4675 2.9075,3.405 C2.845,3.3425 2.845,3.5925 2.9075,3.53 C2.97,3.4675 3,3.5625 3,3.75 C2.8125,3.75 2.75,3.75 2.8125,3.75 C2.875,3.75 2.625,3.75 2.6875,3.75 C2.75,3.75 2.6875,3.75 2.5,3.75 C2.5,3.5625 2.45,3.4875 2.3875,3.55 C2.325,3.6125 2.325,3.3625 2.3875,3.425 C2.45,3.4875 2.5,3.4375 2.5,3.25 Z" fill="darkblue" stroke="black" stroke-width="0.004" /><path d="M3.25,-2.75 C3.4375,-2.75 3.5,-2.75 3.4375,-2.75 C3.375,-2.75 3.625,-2.75 3.5625,-2.75 C3.5,-2.75 3.5625,-2.75 3.75,-2.75 C3.75,-2.5625 3.75,-2.5 3.75,-2.5625 C3.75,-2.625 3.75,-2.375 3.75,-2.4375 C3.75,-2.5 3.75,-2.4375 3.75,-2.25 C3.5625,-2.25 3.5175,-2.295 3.58,-2.3575 C3.6425,-2.42 3.3925,-2.42 3.455,-2.3575 C3.5175,-2.295 3.4375,-2.25 3.25,-2.25 C3.25,-2.4375 3.18,-2.4925 3.1175,-2.43 C3.055,-2.3675 3.055,-2.6175 3.1175,-2.555 C3.18,-2.4925 3.25,-2.5625 3.25,-2.75 Z" fill="darkblue" stroke="black" stroke-width="0.004" /><path d="M3.25,-2 C3.4375,-2 3.5175,-2.045 3.455,-2.1075 C3.3925,-2.17 3.6425,-2.17 3.58,-2.1075 C3.5175,-2.045 3.5625,-2 3.75,-2 C3.75,-1.8125 3.75,-1.75 3.75,-1.8125 C3.75,-1.875 3.75,-1.625 3.75,-1.6875 C3.75,-1.75 3.75,-1.6875 3.75,-1.5 C3.5625,-1.5 3.4775,-1.51 3.54,-1.5725 C3.6025,-1.635 3.3525,-1.635 3.415,-1.5725 C3.4775,-1.51 3.4375,-1.5 3.25,-1.5 C3.25,-1.6875 3.295,-1.7325001 3.3575,-1.6700001 C3.42,-1.6075001 3.42,-1.8575001 3.3575,-1.7950001 C3.295,-1.7325001 3.25,-1.8125 3.25,-2 Z" fill="darkblue" stroke="black" stroke-width="0.004" /><path d="M3.25,-1.25 C3.4375,-1.25 3.4775,-1.26 3.415,-1.3225 C3.3525,-1.385 3.6025,-1.385 3.54,-1.3225 C3.4775,-1.26 3.5625,-1.25 3.75,-1.25 C3.75,-1.0625 3.75,-1 3.75,-1.0625 C3.75,-1.125 3.75,-0.875 3.75,-0.9375 C3.75,-1 3.75,-0.9375 3.75,-0.75 C3.5625,-0.75 3.5075,-0.68 3.57,-0.6175 C3.6325,-0.555 3.3825,-0.555 3.445,-0.6175 C3.5075,-0.68 3.4375,-0.75 3.25,-0.75 C3.25,-0.9375 3.26,-1.0225 3.3225,-0.96000004 C3.385,-0.89750004 3.385,-1.1475 3.3225,-1.085 C3.26,-1.0225 3.25,-1.0625 3.25,-1.25 Z" fill="darkblue" stroke="black" stroke-width="0.004" /><path d="M3.25,-0.5 C3.4375,-0.5 3.5075,-0.43 3.445,-0.3675 C3.3825,-0.305 3.6325,-0.305 3.57,-0.3675 C3.5075,-0.43 3.5625,-0.5 3.75,-0.5 C3.75,-0.3125 3.75,-0.25 3.75,-0.3125 C3.75,-0.375 3.75,-0.125 3.75,-0.1875 C3.75,-0.25 3.75,-0.1875 3.75,0 C3.5625,0 3.5375,0.024999976 3.6,0.087499976 C3.6625,0.14999998 3.4125,0.14999998 3.475,0.087499976 C3.5375,0.024999976 3.4375,0 3.25,0 C3.25,-0.1875 3.18,-0.2425 3.1175,-0.18 C3.055,-0.11750001 3.055,-0.3675 3.1175,-0.305 C3.18,-0.2425 3.25,-0.3125 3.25,-0.5 Z" fill="darkblue" stroke="black" stroke-width="0.004" /><path d="M3.25,0.25 C3.4375,0.25 3.5375,0.275 3.475,0.3375 C3.4125,0.4 3.6625,0.4 3.6,0.3375 C3.5375,0.275 3.5625,0.25 3.75,0.25 C3.75,0.4375 3.75,0.5 3.75,0.4375 C3.75,0.375 3.75,0.625 3.75,0.5625 C3.75,0.5 3.75,0.5625 3.75,0.75 C3.5625,0.75 3.5275,0.71500003 3.59,0.65250003 C3.6525,0.59000003 3.4025,0.59 3.465,0.65250003 C3.5275,0.71500003 3.4375,0.75 3.25,0.75 C3.25,0.5625 3.225,0.53749996 3.1625,0.59999996 C3.1,0.6625 3.1,0.4125 3.1625,0.475 C3.225,0.53749996 3.25,0.4375 3.25,0.25 Z" fill="darkblue" stroke="black" stroke-width="0.004" /><path d="M3.25,1 C3.4375,1 3.5275002,0.96500003 3.465,0.90250003 C3.4025,0.84000003 3.6525002,0.84000003 3.5900002,0.90250003 C3.5275002,0.96500003 3.5625,1 3.75,1 C3.75,1.1875 3.75,1.25 3.75,1.1875 C3.75,1.125 3.75,1.375 3.75,1.3125 C3.75,1.25 3.75,1.3125 3.75,1.5 C3.5625,1.5 3.5675,1.5550001 3.63,1.6175001 C3.6924999,1.6800001 3.4424999,1.6800001 3.5049999,1.6175001 C3.5675,1.5550001 3.4375,1.5 3.25,1.5 C3.25,1.3125 3.285,1.2774999 3.3475,1.34 C3.41,1.4025 3.41,1.1525 3.3475,1.215 C3.285,1.2774999 3.25,1.1875 3.25,1 Z" fill="darkblue" stroke="black" stroke-width="0.004" /><path d="M3.25,1.75 C3.4375,1.75 3.5675,1.8050001 3.505,1.8675001 C3.4425,1.9300001 3.6925,1.9300001 3.63,1.8675001 C3.5675,1.8050001 3.5625,1.75 3.75,1.75 C3.75,1.9375 3.75,2 3.75,1.9375 C3.75,1.875 3.75,2.125 3.75,2.0625 C3.75,2 3.75,2.0625 3.75,2.25 C3.5625,2.25 3.4175,2.18 3.48,2.1175 C3.5425,2.055 3.2925,2.055 3.355,2.1175 C3.4175,2.18 3.4375,2.25 3.25,2.25 C3.25,2.0625 3.195,2.0675 3.1325,2.13 C3.07,2.1925 3.07,1.9425 3.1325,2.005 C3.195,2.0675 3.25,1.9375 3.25,1.75 Z" fill="darkblue" stroke="black" stroke-width="0.004" /><path d="M3.25,2.5 C3.4375,2.5 3.4175,2.43 3.355,2.3675 C3.2925,2.305 3.5425,2.305 3.48,2.3675 C3.4175,2.43 3.5625,2.5 3.75,2.5 C3.75,2.6875 3.75,2.75 3.75,2.6875 C3.75,2.625 3.75,2.875 3.75,2.8125 C3.75,2.75 3.75,2.8125 3.75,3 C3.5625,3 3.4675,3.03 3.53,3.0925 C3.5925,3.155 3.3425,3.155 3.405,3.0925 C3.4675,3.03 3.4375,3 3.25,3 C3.25,2.8125 3.32,2.6675 3.3825,2.73 C3.445,2.7925 3.445,2.5425 3.3825,2.605 C3.32,2.6675 3.25,2.6875 3.25,2.5 Z" fill="darkblue" stroke="black" stroke-width="0.004" /><path d="M3.25,3.25 C3.4375,3.25 3.4675,3.28 3.405,3.3425 C3.3425,3.405 3.5925,3.405 3.53,3.3425 C3.4675,3.28 3.5625,3.25 3.75,3.25 C3.75,3.4375 3.75,3.5 3.75,3.4375 C3.75,3.375 3.75,3.625 3.75,3.5625 C3.75,3.5 3.75,3.5625 3.75,3.75 C3.5625,3.75 3.5,3.75 3.5625,3.75 C3.625,3.75 3.375,3.75 3.4375,3.75 C3.5,3.75 3.4375,3.75 3.25,3.75 C3.25,3.5625 3.22,3.4675 3.1575,3.53 C3.095,3.5925 3.095,3.3425 3.1575,3.405 C3.22,3.4675 3.25,3.4375 3.25,3.25 Z" fill="darkblue" stroke="black" stroke-width="0.004" /><path d="M0,0 l0,1 l1,0 l0,-1 z" fill="none" stroke="black" stroke-width="0.01"/><path d="M0.25,0.25 l0,0.5 l0.5,0 l0,-0.5 z" fill="none" stroke="green" stroke-width="0.0025"/></svg>