<svg viewBox="0 0 1 1" xmlns="http://www.w3.org/2000/svg"><path d="M0.25,0.25 C0.4375,0.25 0.55,0.225 0.4875,0.2875 C0.425,0.35 0.675,0.35 0.6125,0.2875 C0.55,0.225 0.5625,0.25 0.75,0.25 C0.74998146,0.4374259 0.77501476,0.54991853 0.8374963,0.4874 C0.89997774,0.4248815 0.90005183,0.67488146 0.83753335,0.6124 C0.77501476,0.54991853 0.7500185,0.5624259 0.750074,0.7499259 C0.5626482,0.7499629 0.45016298,0.77502954 0.51262593,0.7124926 C0.57508886,0.6499555 0.32508892,0.6501037 0.38762593,0.7125666 C0.45016298,0.77502954 0.43764818,0.75003695 0.2501482,0.7501481 C0.25005567,0.5627222 0.22495568,0.45024443 0.16251126,0.5128 C0.10006684,0.5753555 0.099844635,0.3253556 0.16240016,0.3878 C0.22495568,0.45024443 0.24994457,0.43772224 0.24977791,0.25022233 Z" fill="darkblue" stroke="black" stroke-width="0.01" /><path d="M0.25,0.5 l0,0.01 l0.01,0 l0,-0.01 z" fill="none" stroke="red" stroke-width="0.01"/> <text x="0.25" y="0.5" font-size=".04">0</text><path d="M0.7,0.4 l0,0.01 l0.01,0 l0,-0.01 z" fill="none" stroke="red" stroke-width="0.01"/> <text x="0.7" y="0.4" font-size=".04">1</text><path d="M0.45,0.65 l0,0.01 l0.01,0 l0,-0.01 z" fill="none" stroke="red" stroke-width="0.01"/> <text x="0.45" y="0.65" font-size=".04">2</text><path d="M0.2,0.9 l0,0.01 l0.01,0 l0,-0.01 z" fill="none" stroke="red" stroke-width="0.01"/> <text x="0.2" y="0.9" font-size=".04">3</text><path d="M1.2,0.9 l0,0.01 l0.01,0 l0,-0.01 z" fill="none" stroke="red" stroke-width="0.01"/> <text x="1.2" y="0.9" font-size=".04">4</text><path d="M0.95,0.65 l0,0.01 l0.01,0 l0,-0.01 z" fill="none" stroke="red" stroke-width="0.01"/> <text x="0.95" y="0.65" font-size=".04">5</text><path d="M0.7,0.4 l0,0.01 l0.01,0 l0,-0.01 z" fill="none" stroke="red" stroke-width="0.01"/> <text x="0.7" y="0.4" font-size=".04">6</text><path d="M0.75,0.5 l0,0.01 l0.01,0 l0,-0.01 z" fill="none" stroke="red" stroke-width="0.01"/> <text x="0.75" y="0.5" font-size=".04">7</text><path d="M1.5,0.5 l0,0.01 l0.01,0 l0,-0.01 z" fill="none" stroke="red" stroke-width="0.01"/> <text x="1.5" y="0.5" font-size=".04">8</text><path d="M0,0 l0,1 l1,0 l0,-1 z" fill="none" stroke="black" stroke-width="0.01"/></svg>
